<?xml version="1.0" encoding="UTF-8" standalone="no"?>
<!-- Creator: CorelDRAW -->

<svg
   xmlns:dc="http://purl.org/dc/elements/1.1/"
   xmlns:cc="http://creativecommons.org/ns#"
   xmlns:rdf="http://www.w3.org/1999/02/22-rdf-syntax-ns#"
   xmlns:svg="http://www.w3.org/2000/svg"
   xmlns="http://www.w3.org/2000/svg"
   xmlns:sodipodi="http://sodipodi.sourceforge.net/DTD/sodipodi-0.dtd"
   xmlns:inkscape="http://www.inkscape.org/namespaces/inkscape"
   xml:space="preserve"
   width="8.5in"
   height="11in"
   style="shape-rendering:geometricPrecision; text-rendering:geometricPrecision; image-rendering:optimizeQuality; fill-rule:evenodd"
   viewBox="0 0 8500 11000"
   id="svg3084"
   version="1.1"
   inkscape:version="0.48.2 r9819"
   sodipodi:docname="thumbs_up.svg"><metadata
   id="metadata3095"><rdf:RDF><cc:Work
       rdf:about=""><dc:format>image/svg+xml</dc:format><dc:type
         rdf:resource="http://purl.org/dc/dcmitype/StillImage" /><dc:title></dc:title></cc:Work></rdf:RDF></metadata><sodipodi:namedview
   pagecolor="#ffffff"
   bordercolor="#666666"
   borderopacity="1"
   objecttolerance="10"
   gridtolerance="10"
   guidetolerance="10"
   inkscape:pageopacity="0"
   inkscape:pageshadow="2"
   inkscape:window-width="1440"
   inkscape:window-height="788"
   id="namedview3093"
   showgrid="false"
   inkscape:zoom="0.67425131"
   inkscape:cx="35.378722"
   inkscape:cy="438.7873"
   inkscape:window-x="57"
   inkscape:window-y="29"
   inkscape:window-maximized="0"
   inkscape:current-layer="svg3084" />
 <defs
   id="defs3086">
  <style
   type="text/css"
   id="style3088">
   
    .str0 {stroke:#000000;stroke-width:3}
    .fil0 {fill:#000000}
   
  </style>
 
  
 </defs>
 <path
   style="fill:#ffffff;fill-opacity:1;stroke:#000000;stroke-width:0.89999998000000003"
   inkscape:connector-curvature="0"
   id="path3091"
   d="m 2922.9465,3743.7364 339.9,0 c 156,-179.4 325.5,-310.8 507.6,-393.9 57.3,-4.8 100.2,-7.2 127.5,-7.2 77.7,0 165.6,14.1 264.3,41.4 l 81.6,-41.4 97.8,0 c 223.2,0 335.1,80.1 335.1,239.4 0,9.3 -1.5,22.5 -4.5,41.4 163.8,13.2 246.3,91.5 246.3,234 0,15.3 -1.5,36.3 -4.5,63.6 60.6,17.1 106.5,44.4 137.4,82.5 31.2,37.2 46.8,85.5 46.8,143.1 0,46.5 -16.5,97.2 -49.8,150 81.6,87.9 122.7,185.7 122.7,293.7 0,124.5 -67.5,224.7 -202.8,300.9 -135.3,75.3 -314.1,113.4 -537.3,113.4 l -56.7,0 c 18,136.8 60,269.1 125.1,396.6 l 36.6,63.6 c 78.6,150.3 118.2,266.7 118.2,348.3 0,226.2 -118.8,367.8 -357.6,423.9 l -66,16.2 -114.3,-506.1 -421.5,-448.5 c -28.8,-33.6 -78.3,-98.1 -150,-193.5 l -63.6,-84 c -68.4,-92.7 -116.7,-149.4 -144.6,-169.5 -28.2,-21 -73.2,-31.2 -135.3,-31.2 l -266.7,0 c -81.6,-174 -122.7,-353.7 -122.7,-537 0,-178.8 37.2,-359.4 111,-539.7 z m 75.6,118.2 c -47.7,138.3 -70.8,270.6 -70.8,396.6 0,148.5 25.5,294.6 77.7,439.2 191.1,0 310.8,11.7 359.1,34.2 48.9,22.5 122.1,102.6 219.3,239.4 38.7,52.8 97.8,128.4 174.9,224.7 l 457.8,487.5 90.9,422.1 c 152.4,-52.2 228.6,-149.4 228.6,-292.5 0,-73.8 -25.5,-154.5 -77.7,-240.9 l -29.4,-50.4 c -119.1,-197.7 -178.2,-385.8 -178.2,-565.2 l -2.4,-63.9 82.5,0 c 240.9,0 423,-24 544.2,-71.4 122.1,-48.3 182.7,-120.6 182.7,-217.8 0,-87.9 -31.8,-162.3 -94.8,-222.9 -63,-60.9 -140.1,-91.2 -231,-91.2 l -139.2,-1.5 -412.8,186 c 62.4,93.9 146.1,141.3 251.1,141.3 27.3,0 62.4,-6.3 104.4,-17.7 42.6,-12.6 92.4,-31.2 150.6,-55.2 l 107.4,-4.8 107.1,114.3 -184.8,2.4 c -53.7,22.5 -102,39.6 -146.1,49.8 -43.8,10.8 -84,16.2 -120.6,16.2 -194.4,0 -336.6,-98.7 -426,-296.1 l 77.7,-36.6 c -95.7,-46.8 -169.5,-129 -221.4,-245.7 l 89.4,-38.1 c -70.2,-44.4 -134.7,-119.7 -193.8,-225.3 l 140.7,-66.3 c -76.8,-56.7 -139.2,-135.9 -186.6,-239.4 l 279.9,-125.1 c -45,-9.3 -84,-14.1 -115.8,-14.1 l -88.5,2.4 c -202.2,116.7 -366.3,258.9 -492.3,426 l -313.8,0 z m 1038.6,330.3 c 52.8,70.8 116.4,116.7 191.1,136.2 l 339.6,-152.4 120.6,0 c 114.3,0 200.7,16.2 259.8,48.3 19.2,-27.3 29.4,-53.7 29.4,-77.7 0,-46.8 -23.4,-81.6 -69.3,-105.9 -46.5,-23.4 -115.8,-34.8 -208.2,-34.8 l -241.8,0 -421.2,186.3 z m -95.7,-266.4 c 6.9,9.3 13.2,17.1 17.7,23.1 36.6,42 80.1,75.6 129.9,99.6 l 349.2,-154.8 368.4,2.4 6.9,-29.4 c 0,-89.4 -88.5,-134.7 -266.7,-134.7 l -171,0 -434.4,193.8 z m -48.3,-307.2 c 10.8,13.2 18.6,24 24.9,31.8 28.8,41.4 65.4,77.7 109.5,111.3 l 325.8,-145.5 210,0 0,-13.8 c 0,-102 -73.8,-152.4 -221.7,-152.4 l -74.4,0 -374.1,168.6 z"
   class="fil0 str0"
   inkscape:export-filename="/Users/robertamanfu/Documents/Insight/Project/CraigFlagr_purecss/app/static/img/common/thumps_down.png"
   inkscape:export-xdpi="27.18548"
   inkscape:export-ydpi="27.18548" /><text
   xml:space="preserve"
   style="font-size:800px;font-style:normal;font-weight:bold;line-height:125%;letter-spacing:0px;word-spacing:0px;fill:#ffffff;fill-opacity:1;stroke:none;font-family:Sans;-inkscape-font-specification:Sans Bold"
   x="2830.6089"
   y="7009.2935"
   id="text3868"
   sodipodi:linespacing="125%"
   inkscape:export-filename="/Users/robertamanfu/Documents/Insight/Project/CraigFlagr_purecss/app/static/img/common/thumps_down.png"
   inkscape:export-xdpi="27.18548"
   inkscape:export-ydpi="27.18548"><tspan
     sodipodi:role="line"
     id="tspan3870"
     x="2830.6089"
     y="7009.2935">PASS </tspan></text>


</svg>